<svg xmlns="http://www.w3.org/2000/svg" width="138" height="48" fill="none" viewBox="0 0 138 48"><g clip-path="url(#a)"><path fill="#e76f00" d="M29.411 7.726V5.918c-.353.11-1.075.345-1.14.41-.065.066-.516.247-.733.33l-.082.657 1.955.658zm-27.13 0V5.918c.353.11 1.053.381 1.14.41.245.083.517.247.734.33l.082.657-1.956.658z"/><path fill="#ffba0a" d="M31.774 8.712H0v32.055h31.774z"/><path fill="#fff" d="M42.392 38.518q-2.571 0-4.575-1.258-2.003-1.26-3.137-3.432-1.134-2.212-1.134-4.997 0-2.82 1.134-5.034 1.134-2.211 3.137-3.432 2.003-1.258 4.575-1.258 1.738 0 3.175.648 1.437.61 2.344 1.754a5 5 0 0 1 1.134 2.593v9.382a5.05 5.05 0 0 1-1.134 2.632q-.907 1.106-2.344 1.754t-3.175.648m1.398-5.91q1.626 0 2.609-1.069 1.02-1.068 1.02-2.746 0-1.105-.453-1.945a3.43 3.43 0 0 0-1.286-1.334q-.793-.496-1.852-.496t-1.89.496q-.795.495-1.285 1.373-.454.838-.454 1.906 0 1.107.454 1.983.453.84 1.285 1.335t1.852.496m3.365 5.529V33.14l.945-4.576-.945-4.5v-4.577h6.464v18.649zm10.68 0V19.488h6.578v18.649zm6.578-10.144-2.948-2.517q1.095-3.165 2.91-4.768 1.815-1.6 4.726-1.601 1.323 0 2.268.343.983.344 1.663 1.068l-3.818 5.148q-.302-.343-.87-.534a3 3 0 0 0-1.209-.229q-1.285 0-2.004.801-.718.763-.718 2.288M77.47 38.137V11.784h6.578v26.353zm-4.083-13.12v-5.529H88.13v5.53zm17.395 13.12V19.488h6.616v18.649zm3.29-20.823q-1.476 0-2.458-.991-.983-1.03-.983-2.556 0-1.486.983-2.517t2.457-1.03q1.55 0 2.495 1.03.983 1.03.983 2.517 0 1.526-.983 2.556-.945.99-2.495.991m9.805 20.823V18.306q0-2.365 1.021-4.234a7.83 7.83 0 0 1 2.91-3.05q1.929-1.145 4.612-1.145 2.004 0 3.516.687a8.1 8.1 0 0 1 2.608 1.754l-4.12 4.157a1.7 1.7 0 0 0-.756-.496 2.3 2.3 0 0 0-.983-.19q-1.02 0-1.626.61-.604.61-.604 1.64v20.098zm-3.932-13.12v-5.529h15.726v5.53zm24.284 13.158-7.409-18.687h7.031l4.537 15.37h-2.76l4.574-15.37h7.032l-7.599 18.649zm-4.385 7.856 5.482-12.165 4.309 4.27-3.175 7.895zm-98.98-8.058-10.109-14.07 2.607-2.697h7.659l-3.4 3.8-.039-2.395 11.505 15.362zm-16.22 0V10.849h6.753v27.124z"/><path fill="#ffba0a" d="M94.1 17.096c1.935 0 3.503-1.582 3.503-3.534s-1.568-3.535-3.503-3.535-3.503 1.583-3.503 3.535 1.568 3.534 3.503 3.534"/><path fill="#f90" d="M7.753 15.479a1.896 1.896 0 0 0 1.887-1.904 1.896 1.896 0 0 0-1.887-1.904 1.896 1.896 0 0 0-1.887 1.904c0 1.051.845 1.904 1.887 1.904m16.431 0a1.895 1.895 0 0 0 1.887-1.904 1.896 1.896 0 0 0-1.887-1.904 1.895 1.895 0 0 0-1.887 1.904c0 1.051.845 1.904 1.887 1.904"/><g filter="url(#b)"><path fill="url(#c)" d="M15.969 22.815c-5.056-.007-9.153-4.14-9.16-9.24h1.888c-.002 4.052 3.253 7.337 7.27 7.339 4.015 0 7.272-3.283 7.273-7.334v-.005h1.887c-.007 5.1-4.103 9.233-9.158 9.24"/></g><path fill="url(#d)" d="M3.992 6.986 0 8.712h31.774c-1.14-.657-3.291-1.216-3.748-1.48-.57-.328-.081-.657 1.141-1.068.978-.328-.896-.904-1.955-1.15H4.48c-1.032.274-2.77.822-2.037 1.068 1.5.329 1.874.74 1.548.904"/><mask id="g" width="32" height="4" x="0" y="5" maskUnits="userSpaceOnUse" style="mask-type:alpha"><path fill="url(#e)" d="M3.992 6.986 0 8.712h31.774c-1.14-.657-3.291-1.216-3.748-1.48-.57-.328-.081-.657 1.141-1.068.978-.328-.896-.904-1.955-1.15H4.48c-1.032.274-2.77.822-2.037 1.068 1.5.329 1.874.74 1.548.904"/></mask><g filter="url(#f)" mask="url(#g)"/></g><defs><radialGradient id="d" cx="0" cy="0" r="1" gradientTransform="matrix(0 15.637 -15.5001 0 15.887 6.863)" gradientUnits="userSpaceOnUse"><stop stop-color="#ffdb95"/><stop offset="1" stop-color="#ffa800"/></radialGradient><radialGradient id="e" cx="0" cy="0" r="1" gradientTransform="matrix(0 8.34247 -8.2694 0 15.887 6.863)" gradientUnits="userSpaceOnUse"><stop stop-color="#ffefc5"/><stop offset="1" stop-color="#ffba0a"/></radialGradient><filter id="b" width="18.318" height="12.24" x="6.81" y="13.575" color-interpolation-filters="sRGB" filterUnits="userSpaceOnUse"><feFlood flood-opacity="0" result="BackgroundImageFix"/><feColorMatrix in="SourceAlpha" result="hardAlpha" values="0 0 0 0 0 0 0 0 0 0 0 0 0 0 0 0 0 0 127 0"/><feOffset dy="3"/><feComposite in2="hardAlpha" operator="out"/><feColorMatrix values="0 0 0 0 0 0 0 0 0 0 0 0 0 0 0 0 0 0 0.09 0"/><feBlend in2="BackgroundImageFix" result="effect1_dropShadow_858_17908"/><feBlend in="SourceGraphic" in2="effect1_dropShadow_858_17908" result="shape"/></filter><filter id="f" width="70.428" height="62.63" x="-19.246" y="-21.288" color-interpolation-filters="sRGB" filterUnits="userSpaceOnUse"><feFlood flood-opacity="0" result="BackgroundImageFix"/><feBlend in="SourceGraphic" in2="BackgroundImageFix" result="shape"/><feGaussianBlur result="effect1_foregroundBlur_858_17908" stdDeviation="15"/></filter><linearGradient id="c" x1="24.468" x2="8.501" y1="15.343" y2="28.586" gradientUnits="userSpaceOnUse"><stop stop-color="#dae5f7"/><stop offset=".968" stop-color="#a7bcdc"/></linearGradient><clipPath id="a"><path fill="#fff" d="M0 0h137.362v48H0z"/></clipPath></defs></svg>